<svg xmlns="http://www.w3.org/2000/svg" width="1200" height="675" viewBox="0 0 1200 675" font-family="'JetBrains Mono','SF Mono',Menlo,Consolas,monospace">
  <rect width="1200" height="675" fill="#0e100c"/>
  <rect x="24" y="24" width="1152" height="627" rx="20" fill="#171a14"/>
  <text x="64" y="92" fill="#c6f432" font-size="24" font-weight="700" letter-spacing="4">SHOULDA</text>
  <text x="206" y="92" fill="#9d9f92" font-size="22">0xde60…beef · Robinhood Chain</text>
  <text x="64" y="186" fill="#f4f1e8" font-size="64" font-weight="800">SHOULDA BOUGHT SPY.</text>
  <text x="64" y="236" fill="#9d9f92" font-size="24">Gramps bought SPY in 1993 and went fishing.</text>
  <text x="64" y="290" fill="#ff5a4e" font-size="26" font-weight="700">-$9,679 vs SPY (-67%)</text>
  
      <text x="64" y="360" fill="#9d9f92" font-size="26">Your memes</text>
      <rect x="360" y="336" width="183.75310401989222" height="34" rx="4" fill="#ff5a4e"/>
      <text x="559.7531040198922" y="362" fill="#f4f1e8" font-size="28" font-weight="700">$4,751</text>
      <text x="64" y="430" fill="#9d9f92" font-size="26">Just held ETH</text>
      <rect x="360" y="406" width="560" height="34" rx="4" fill="#8a8f99"/>
      <text x="936" y="432" fill="#f4f1e8" font-size="28" font-weight="700">$14.5K</text>
      <text x="64" y="500" fill="#9d9f92" font-size="26">Just bought SPY</text>
      <rect x="360" y="476" width="558.1244191077942" height="34" rx="4" fill="#c6f432"/>
      <text x="934.1244191077942" y="502" fill="#f4f1e8" font-size="28" font-weight="700">$14.4K</text>
  <text x="64" y="590" fill="#9d9f92" font-size="22">5 apes  ·  4 coins  ·  1 went to zero  ·  $13.5K in</text>
  <text x="64" y="626" fill="#9d9f92" font-size="18" opacity="0.7">every dollar you aped, replayed into SPY at the Chainlink price that day · read-only</text>
  <g shape-rendering="crispEdges"><rect x="1060" y="44" width="60" height="10" fill="#553520"/><rect x="1050" y="54" width="10" height="10" fill="#553520"/><rect x="1060" y="54" width="60" height="10" fill="#7a4e2d"/><rect x="1120" y="54" width="10" height="10" fill="#553520"/><rect x="1040" y="64" width="10" height="10" fill="#553520"/><rect x="1050" y="64" width="80" height="10" fill="#7a4e2d"/><rect x="1130" y="64" width="20" height="10" fill="#553520"/><rect x="940" y="74" width="70" height="10" fill="#14120f"/><rect x="1040" y="74" width="120" height="10" fill="#14120f"/><rect x="920" y="84" width="20" height="10" fill="#14120f"/><rect x="940" y="84" width="70" height="10" fill="#3f8a58"/><rect x="1010" y="84" width="20" height="10" fill="#14120f"/><rect x="1040" y="84" width="10" height="10" fill="#14120f"/><rect x="1050" y="84" width="80" height="10" fill="#8fc46a"/><rect x="1130" y="84" width="10" height="10" fill="#14120f"/><rect x="910" y="94" width="10" height="10" fill="#14120f"/><rect x="920" y="94" width="10" height="10" fill="#3f8a58"/><rect x="930" y="94" width="30" height="10" fill="#2f6b45"/><rect x="960" y="94" width="10" height="10" fill="#3f8a58"/><rect x="970" y="94" width="30" height="10" fill="#2f6b45"/><rect x="1000" y="94" width="10" height="10" fill="#3f8a58"/><rect x="1010" y="94" width="20" height="10" fill="#2f6b45"/><rect x="1030" y="94" width="20" height="10" fill="#14120f"/><rect x="1050" y="94" width="20" height="10" fill="#8fc46a"/><rect x="1070" y="94" width="20" height="10" fill="#14120f"/><rect x="1090" y="94" width="20" height="10" fill="#8fc46a"/><rect x="1110" y="94" width="20" height="10" fill="#14120f"/><rect x="1130" y="94" width="20" height="10" fill="#8fc46a"/><rect x="1150" y="94" width="10" height="10" fill="#14120f"/><rect x="900" y="104" width="10" height="10" fill="#14120f"/><rect x="910" y="104" width="10" height="10" fill="#3f8a58"/><rect x="920" y="104" width="40" height="10" fill="#2f6b45"/><rect x="960" y="104" width="10" height="10" fill="#3f8a58"/><rect x="970" y="104" width="30" height="10" fill="#2f6b45"/><rect x="1000" y="104" width="10" height="10" fill="#3f8a58"/><rect x="1010" y="104" width="30" height="10" fill="#2f6b45"/><rect x="1040" y="104" width="10" height="10" fill="#14120f"/><rect x="1050" y="104" width="10" height="10" fill="#8fc46a"/><rect x="1060" y="104" width="10" height="10" fill="#14120f"/><rect x="1070" y="104" width="20" height="10" fill="#6a9c4d"/><rect x="1090" y="104" width="20" height="10" fill="#14120f"/><rect x="1110" y="104" width="20" height="10" fill="#6a9c4d"/><rect x="1130" y="104" width="10" height="10" fill="#14120f"/><rect x="1140" y="104" width="10" height="10" fill="#8fc46a"/><rect x="1150" y="104" width="10" height="10" fill="#14120f"/><rect x="890" y="114" width="10" height="10" fill="#14120f"/><rect x="900" y="114" width="10" height="10" fill="#3f8a58"/><rect x="910" y="114" width="20" height="10" fill="#2f6b45"/><rect x="930" y="114" width="10" height="10" fill="#c6f432"/><rect x="940" y="114" width="20" height="10" fill="#2f6b45"/><rect x="960" y="114" width="10" height="10" fill="#3f8a58"/><rect x="970" y="114" width="30" height="10" fill="#2f6b45"/><rect x="1000" y="114" width="10" height="10" fill="#3f8a58"/><rect x="1010" y="114" width="30" height="10" fill="#2f6b45"/><rect x="1040" y="114" width="10" height="10" fill="#14120f"/><rect x="1050" y="114" width="10" height="10" fill="#8fc46a"/><rect x="1060" y="114" width="10" height="10" fill="#14120f"/><rect x="1070" y="114" width="10" height="10" fill="#b9d7ff"/><rect x="1080" y="114" width="10" height="10" fill="#f4f1e8"/><rect x="1090" y="114" width="20" height="10" fill="#14120f"/><rect x="1110" y="114" width="10" height="10" fill="#b9d7ff"/><rect x="1120" y="114" width="10" height="10" fill="#f4f1e8"/><rect x="1130" y="114" width="10" height="10" fill="#14120f"/><rect x="1140" y="114" width="10" height="10" fill="#8fc46a"/><rect x="1150" y="114" width="10" height="10" fill="#14120f"/><rect x="890" y="124" width="10" height="10" fill="#14120f"/><rect x="900" y="124" width="140" height="10" fill="#3f8a58"/><rect x="1040" y="124" width="10" height="10" fill="#14120f"/><rect x="1050" y="124" width="20" height="10" fill="#8fc46a"/><rect x="1070" y="124" width="20" height="10" fill="#14120f"/><rect x="1090" y="124" width="20" height="10" fill="#8fc46a"/><rect x="1110" y="124" width="20" height="10" fill="#14120f"/><rect x="1130" y="124" width="20" height="10" fill="#8fc46a"/><rect x="1150" y="124" width="10" height="10" fill="#14120f"/><rect x="880" y="134" width="10" height="10" fill="#14120f"/><rect x="890" y="134" width="40" height="10" fill="#2f6b45"/><rect x="930" y="134" width="10" height="10" fill="#3f8a58"/><rect x="940" y="134" width="50" height="10" fill="#2f6b45"/><rect x="990" y="134" width="10" height="10" fill="#3f8a58"/><rect x="1000" y="134" width="40" height="10" fill="#2f6b45"/><rect x="1040" y="134" width="10" height="10" fill="#14120f"/><rect x="1050" y="134" width="100" height="10" fill="#8fc46a"/><rect x="1150" y="134" width="10" height="10" fill="#14120f"/><rect x="880" y="144" width="10" height="10" fill="#14120f"/><rect x="890" y="144" width="20" height="10" fill="#2f6b45"/><rect x="910" y="144" width="10" height="10" fill="#c6f432"/><rect x="920" y="144" width="10" height="10" fill="#2f6b45"/><rect x="930" y="144" width="10" height="10" fill="#3f8a58"/><rect x="940" y="144" width="50" height="10" fill="#2f6b45"/><rect x="990" y="144" width="10" height="10" fill="#3f8a58"/><rect x="1000" y="144" width="40" height="10" fill="#2f6b45"/><rect x="1040" y="144" width="10" height="10" fill="#14120f"/><rect x="1050" y="144" width="60" height="10" fill="#8fc46a"/><rect x="1110" y="144" width="30" height="10" fill="#14120f"/><rect x="1140" y="144" width="10" height="10" fill="#8fc46a"/><rect x="1150" y="144" width="10" height="10" fill="#14120f"/><rect x="880" y="154" width="10" height="10" fill="#14120f"/><rect x="890" y="154" width="150" height="10" fill="#3f8a58"/><rect x="1040" y="154" width="10" height="10" fill="#14120f"/><rect x="1050" y="154" width="10" height="10" fill="#6a9c4d"/><rect x="1060" y="154" width="40" height="10" fill="#8fc46a"/><rect x="1100" y="154" width="10" height="10" fill="#14120f"/><rect x="1110" y="154" width="30" height="10" fill="#8fc46a"/><rect x="1140" y="154" width="10" height="10" fill="#14120f"/><rect x="880" y="164" width="180" height="10" fill="#14120f"/><rect x="1060" y="164" width="10" height="10" fill="#6a9c4d"/><rect x="1070" y="164" width="60" height="10" fill="#8fc46a"/><rect x="1130" y="164" width="10" height="10" fill="#14120f"/><rect x="890" y="174" width="10" height="10" fill="#14120f"/><rect x="900" y="174" width="180" height="10" fill="#8fc46a"/><rect x="1080" y="174" width="50" height="10" fill="#14120f"/><rect x="890" y="184" width="10" height="10" fill="#14120f"/><rect x="900" y="184" width="170" height="10" fill="#6a9c4d"/><rect x="1070" y="184" width="10" height="10" fill="#14120f"/><rect x="900" y="194" width="20" height="10" fill="#14120f"/><rect x="920" y="194" width="30" height="10" fill="#8fc46a"/><rect x="950" y="194" width="10" height="10" fill="#14120f"/><rect x="1010" y="194" width="10" height="10" fill="#14120f"/><rect x="1020" y="194" width="30" height="10" fill="#8fc46a"/><rect x="1050" y="194" width="20" height="10" fill="#14120f"/><rect x="910" y="204" width="10" height="10" fill="#14120f"/><rect x="920" y="204" width="30" height="10" fill="#8fc46a"/><rect x="950" y="204" width="10" height="10" fill="#14120f"/><rect x="1010" y="204" width="10" height="10" fill="#14120f"/><rect x="1020" y="204" width="30" height="10" fill="#8fc46a"/><rect x="1050" y="204" width="10" height="10" fill="#14120f"/><rect x="910" y="214" width="10" height="10" fill="#14120f"/><rect x="920" y="214" width="30" height="10" fill="#6a9c4d"/><rect x="950" y="214" width="10" height="10" fill="#14120f"/><rect x="1010" y="214" width="10" height="10" fill="#14120f"/><rect x="1020" y="214" width="30" height="10" fill="#6a9c4d"/><rect x="1050" y="214" width="10" height="10" fill="#14120f"/><rect x="910" y="224" width="60" height="10" fill="#14120f"/><rect x="1010" y="224" width="60" height="10" fill="#14120f"/></g>
</svg>
